<?xml version="1.0" encoding="iso-8859-1"?>
<!-- Uploaded to: SVG Repo, www.svgrepo.com, Generator: SVG Repo Mixer Tools -->
<!DOCTYPE svg PUBLIC "-//W3C//DTD SVG 1.1//EN" "http://www.w3.org/Graphics/SVG/1.1/DTD/svg11.dtd">
<svg fill="#000000" version="1.1" id="Capa_1" xmlns="http://www.w3.org/2000/svg" xmlns:xlink="http://www.w3.org/1999/xlink" 
	 width="800px" height="800px" viewBox="0 0 31.969 31.97"
	 xml:space="preserve">
<g>
	<g>
		<path d="M0.875,21.789v7.955c0,1.229,0.997,2.226,2.226,2.226h25.766c1.229,0,2.227-0.997,2.227-2.226v-7.971
			c-0.158,0.01-0.193,0.016-0.256,0.016H0.875z M5.296,30.143c-0.727,0-1.315-0.589-1.315-1.314s0.589-1.314,1.315-1.314
			c0.725,0,1.314,0.589,1.314,1.314S6.021,30.143,5.296,30.143z M26.762,29.902H9.907c-0.591,0-1.072-0.441-1.072-1.033
			s0.48-1.034,1.072-1.034h16.855c0.592,0,1.072,0.44,1.072,1.034C27.834,29.46,27.356,29.902,26.762,29.902z"/>
		<path d="M28.868,16.383v-0.046V6.825c0-0.655-0.26-1.283-0.725-1.746l-4.38-4.361C23.302,0.258,22.677,0,22.026,0H4.564
			C3.756,0,3.102,0.655,3.102,1.463v14.873v0.046c-1.229,0-2.226,0.997-2.226,2.226v1.114h29.963c0.062,0,0.098,0.006,0.256,0.017
			v-1.131C31.094,17.38,30.097,16.383,28.868,16.383z M23.301,3.283l2.443,2.444h-2.443V3.283z M5.169,2.068h16.063v0.068v4.492
			c0,0.731,0.594,1.325,1.325,1.325h4.083v8.112H5.169V2.068z"/>
		<path d="M23.333,11.135H8.319c-0.592,0-1.072,0.442-1.072,1.034c0,0.591,0.48,1.034,1.072,1.034h15.013
			c0.592,0,1.072-0.442,1.072-1.034C24.403,11.576,23.923,11.135,23.333,11.135z"/>
		<path d="M8.319,7.953h8.58c0.592,0,1.071-0.521,1.071-1.114c0-0.592-0.479-1.112-1.071-1.112h-8.58
			c-0.592,0-1.072,0.521-1.072,1.112C7.248,7.432,7.728,7.953,8.319,7.953z"/>
	</g>
</g>
</svg>